<!DOCTYPE svg PUBLIC "-//W3C//DTD SVG 1.1//EN" "http://www.w3.org/Graphics/SVG/1.1/DTD/svg11.dtd">
<!-- Uploaded to: SVG Repo, www.svgrepo.com, Transformed by: SVG Repo Mixer Tools -->
<svg fill="#e0c21a" width="162px" height="162px" viewBox="0 0 22 22" xmlns="http://www.w3.org/2000/svg" id="memory-database" stroke="#e0c21a" stroke-width="0.00022">
<g id="SVGRepo_bgCarrier" stroke-width="0"/>
<g id="SVGRepo_tracerCarrier" stroke-linecap="round" stroke-linejoin="round"/>
<g id="SVGRepo_iconCarrier">
<path d="M7 2H15V3H17V4H18V5H19V17H18V18H17V19H15V20H7V19H5V18H4V17H3V5H4V4H5V3H7V2M8 16V15H6V14H5V16H6V17H8V18H14V17H16V16H17V14H16V15H14V16H8M8 11V10H6V9H5V12H7V13H9V14H13V13H15V12H17V9H16V10H14V11H8M9 8V9H13V8H15V7H17V6H16V5H14V4H8V5H6V6H5V7H7V8H9Z"/>
</g>
</svg>